<svg xmlns="http://www.w3.org/2000/svg" viewBox="0 0 100 100">
  <defs>
    <linearGradient id="grad" x1="0%" y1="0%" x2="100%" y2="100%">
      <stop offset="0%" style="stop-color:#10b981;stop-opacity:1" />
      <stop offset="100%" style="stop-color:#14b8a6;stop-opacity:1" />
    </linearGradient>
    <linearGradient id="bgGrad" x1="0%" y1="0%" x2="100%" y2="100%">
      <stop offset="0%" style="stop-color:#0d1117;stop-opacity:1" />
      <stop offset="100%" style="stop-color:#161b22;stop-opacity:1" />
    </linearGradient>
  </defs>
  <!-- Background -->
  <rect width="100" height="100" rx="20" fill="url(#bgGrad)"/>
  <!-- Outer glow ring -->
  <rect x="4" y="4" width="92" height="92" rx="17" fill="none" stroke="url(#grad)" stroke-width="2" opacity="0.4"/>
  <!-- Database layers icon -->
  <g transform="translate(50, 50)">
    <ellipse cx="0" cy="-18" rx="26" ry="10" fill="url(#grad)" opacity="0.95"/>
    <path d="M-26 -18 v14 c0 5.5 11.6 10 26 10 s26-4.5 26-10 v-14" fill="url(#grad)" opacity="0.75"/>
    <ellipse cx="0" cy="-4" rx="26" ry="10" fill="none" stroke="url(#grad)" stroke-width="2" opacity="0.6"/>
    <path d="M-26 -4 v14 c0 5.5 11.6 10 26 10 s26-4.5 26-10 v-14" fill="url(#grad)" opacity="0.55"/>
    <ellipse cx="0" cy="10" rx="26" ry="10" fill="none" stroke="url(#grad)" stroke-width="2" opacity="0.4"/>
    <path d="M-26 10 v14 c0 5.5 11.6 10 26 10 s26-4.5 26-10 v-14" fill="url(#grad)" opacity="0.35"/>
    <ellipse cx="0" cy="24" rx="26" ry="10" fill="url(#grad)" opacity="0.5"/>
  </g>
</svg>
